<svg xmlns="http://www.w3.org/2000/svg" xmlns:xlink="http://www.w3.org/1999/xlink" aria-hidden="true" focusable="false" width="24px" height="24px" style="-ms-transform: rotate(360deg); -webkit-transform: rotate(360deg); transform: rotate(360deg);" preserveAspectRatio="xMidYMid meet" viewBox="0 0 24 24"><circle cx="12" cy="12" r="12" fill="#1976D2"/><path transform="scale(0.8,0.8) translate(3,4.5)" d="M12 5c-1.11 0-2 .89-2 2s.89 2 2 2s2-.89 2-2s-.89-2-2-2m10-4v5h-2V4H4v2H2V1h2v2h16V1h2m-7 10.26V23h-2v-5h-2v5H9V11.26C6.93 10.17 5.5 8 5.5 5.5V5h2v.5C7.5 8 9.5 10 12 10s4.5-2 4.5-4.5V5h2v.5c0 2.5-1.43 4.67-3.5 5.76z" fill="white"/></svg>
