<svg xmlns="http://www.w3.org/2000/svg" xmlns:xlink="http://www.w3.org/1999/xlink" aria-hidden="true" focusable="false"
     width="24px" height="24px"
     style="-ms-transform: rotate(360deg); -webkit-transform: rotate(360deg); transform: rotate(360deg);"
     preserveAspectRatio="xMidYMid meet" viewBox="0 0 24 24">
    <defs>
        <filter id="shadow" x="-100%" y="-100%" width="300%" height="300%">
            <feGaussianBlur in="SourceAlpha" stdDeviation="0.2"/>
            <feOffset dx="0.2" dy="0.2" result="offsetblur"/>
            <feFlood flood-color="#000000" flood-opacity="0.2"/>
            <feComposite in2="offsetblur" operator="in"/>
            <feMerge>
                <feMergeNode/>
                <feMergeNode in="SourceGraphic"/>
            </feMerge>
        </filter>
    </defs>
    <circle cx="12" cy="12" r="11.4" fill="#1976D2"/>
    <path transform="scale(0.69,0.69) translate(5.4,7)"
          filter="url(#shadow)"
          d="M12 5c-1.11 0-2 .89-2 2s.89 2 2 2s2-.89 2-2s-.89-2-2-2m10-4v5h-2V4H4v2H2V1h2v2h16V1h2m-7 10.26V23h-2v-5h-2v5H9V11.26C6.93 10.17 5.5 8 5.5 5.5V5h2v.5C7.5 8 9.5 10 12 10s4.5-2 4.5-4.5V5h2v.5c0 2.5-1.43 4.67-3.5 5.76z"
          fill="white"/>
</svg>
